<svg id="svg" version="1.1" xmlns="http://www.w3.org/2000/svg" xmlns:xlink="http://www.w3.org/1999/xlink" width="400" height="54.05405405405405" viewBox="0, 0, 400,54.05405405405405"><g id="svgg"><path id="path0" d="M6.208 3.713 C 6.191 3.921,6.015 4.877,5.818 5.838 C 5.620 6.798,5.422 7.790,5.377 8.042 L 5.296 8.500 12.064 8.500 C 15.787 8.500,18.833 8.551,18.833 8.613 C 18.833 8.675,18.527 10.231,18.153 12.071 C 17.778 13.911,17.445 15.604,17.413 15.833 C 17.380 16.063,17.231 16.813,17.081 17.500 C 16.932 18.188,16.781 18.938,16.746 19.167 C 16.711 19.396,16.414 20.858,16.087 22.417 C 15.760 23.975,15.457 25.482,15.414 25.765 C 15.372 26.048,15.181 27.023,14.990 27.932 C 14.799 28.840,14.619 29.733,14.591 29.917 C 14.562 30.100,14.414 30.813,14.261 31.500 C 14.108 32.188,13.953 32.938,13.918 33.167 C 13.882 33.396,13.693 34.371,13.498 35.333 C 13.303 36.296,13.117 37.271,13.085 37.501 C 13.021 37.959,12.544 40.076,12.401 40.542 C 12.317 40.814,12.574 40.833,16.232 40.833 L 20.154 40.833 20.307 40.208 C 20.447 39.637,22.205 30.917,22.415 29.750 C 22.553 28.981,22.639 28.583,22.665 28.583 C 22.678 28.583,22.722 28.321,22.762 28.000 C 22.803 27.679,22.990 26.704,23.178 25.833 C 23.365 24.962,23.548 24.063,23.583 23.833 C 23.618 23.604,23.882 22.254,24.170 20.833 C 24.457 19.412,24.716 18.100,24.744 17.917 C 24.772 17.733,24.920 17.021,25.073 16.333 C 25.226 15.646,25.382 14.869,25.420 14.608 C 25.458 14.346,25.534 13.988,25.590 13.811 C 25.646 13.635,25.720 13.286,25.755 13.037 C 25.789 12.787,25.896 12.208,25.993 11.750 C 26.090 11.292,26.247 10.504,26.344 10.000 C 26.440 9.496,26.541 8.971,26.567 8.833 C 26.609 8.617,27.524 8.577,33.397 8.540 C 38.605 8.506,40.196 8.448,40.254 8.290 C 40.296 8.176,40.362 7.896,40.402 7.667 C 40.442 7.438,40.485 7.250,40.497 7.250 C 40.509 7.250,40.553 6.923,40.594 6.524 C 40.635 6.124,40.720 5.715,40.782 5.615 C 40.844 5.515,40.909 5.280,40.927 5.092 C 40.946 4.904,41.014 4.431,41.079 4.042 L 41.196 3.333 23.718 3.333 L 6.239 3.333 6.208 3.713 M145.152 7.625 C 143.846 9.985,142.351 12.667,141.829 13.583 C 141.307 14.500,140.522 15.925,140.083 16.750 C 139.644 17.575,139.183 18.368,139.059 18.513 C 138.935 18.658,138.833 18.824,138.833 18.882 C 138.833 19.016,135.853 24.437,132.537 30.333 C 132.305 30.746,131.924 31.435,131.691 31.864 C 131.458 32.294,131.195 32.601,131.108 32.547 C 131.019 32.492,131.003 32.537,131.072 32.648 C 131.140 32.758,131.061 33.051,130.897 33.299 C 130.733 33.547,130.304 34.313,129.943 35.000 C 129.583 35.688,129.009 36.737,128.668 37.333 C 127.748 38.943,126.833 40.644,126.833 40.745 C 126.833 40.793,128.206 40.833,129.884 40.833 L 132.934 40.833 133.617 39.625 C 134.794 37.543,135.034 37.111,135.580 36.083 C 135.873 35.533,136.580 34.239,137.152 33.207 L 138.193 31.330 145.633 31.373 L 153.074 31.417 153.191 32.083 C 153.255 32.450,153.362 33.012,153.428 33.333 C 153.494 33.654,153.564 34.067,153.583 34.250 C 153.602 34.433,153.694 34.883,153.788 35.250 C 153.881 35.617,154.167 37.023,154.421 38.375 L 154.885 40.833 158.753 40.833 L 162.620 40.833 162.470 40.208 C 162.242 39.259,160.837 31.999,160.856 31.866 C 160.865 31.802,160.858 31.712,160.840 31.667 C 160.783 31.521,160.348 29.288,160.239 28.583 C 160.211 28.400,160.040 27.537,159.859 26.667 C 159.421 24.561,158.910 21.924,158.583 20.083 C 158.436 19.258,158.249 18.283,158.167 17.917 C 157.902 16.739,157.155 12.866,157.074 12.250 C 157.049 12.067,156.913 11.354,156.771 10.667 C 156.470 9.211,156.375 8.720,156.173 7.583 C 156.026 6.754,155.567 4.423,155.410 3.708 L 155.327 3.333 151.427 3.333 L 147.527 3.333 145.152 7.625 M105.229 11.255 C 105.283 11.395,105.210 12.051,105.068 12.713 C 104.720 14.332,104.711 14.378,104.413 16.000 C 104.270 16.779,104.074 17.712,103.977 18.073 C 103.880 18.434,103.775 18.922,103.742 19.156 C 103.662 19.737,102.964 23.360,102.326 26.500 C 101.815 29.020,101.608 30.065,101.422 31.083 C 101.371 31.358,101.286 31.771,101.232 32.000 C 101.178 32.229,101.102 32.604,101.062 32.833 C 100.845 34.095,100.123 37.677,99.972 38.250 C 99.875 38.616,99.761 39.212,99.720 39.573 C 99.678 39.935,99.572 40.366,99.483 40.532 C 99.330 40.817,99.476 40.833,102.219 40.833 L 105.116 40.833 105.134 40.375 C 105.144 40.123,105.422 38.642,105.751 37.083 C 106.081 35.525,106.384 34.014,106.425 33.726 C 106.465 33.438,106.727 32.088,107.005 30.726 C 107.284 29.364,107.542 28.063,107.580 27.833 C 107.617 27.604,107.810 26.629,108.009 25.667 C 108.577 22.918,108.696 22.271,108.692 21.958 C 108.689 21.798,108.762 21.667,108.854 21.667 C 108.945 21.667,108.986 21.610,108.944 21.542 C 108.874 21.426,108.999 20.572,109.329 18.917 C 109.402 18.550,109.696 17.087,109.983 15.667 C 110.270 14.246,110.544 12.858,110.593 12.583 C 110.641 12.308,110.746 11.840,110.827 11.542 L 110.973 11.000 108.052 11.000 C 105.499 11.000,105.143 11.032,105.229 11.255 M249.263 11.375 C 249.122 11.860,248.773 13.592,248.796 13.690 C 248.810 13.748,248.747 14.048,248.657 14.356 C 248.567 14.664,248.461 15.142,248.422 15.417 C 248.382 15.692,248.271 16.292,248.174 16.750 C 248.076 17.208,247.954 17.808,247.901 18.083 C 247.848 18.358,247.365 20.796,246.828 23.500 C 246.290 26.204,245.817 28.604,245.775 28.833 C 245.734 29.063,245.574 29.850,245.420 30.583 C 245.265 31.317,245.110 32.131,245.075 32.392 C 245.040 32.654,244.964 33.018,244.906 33.201 C 244.848 33.384,244.781 33.694,244.758 33.892 C 244.659 34.722,243.620 39.769,243.503 39.982 C 243.089 40.741,243.385 40.833,246.228 40.833 L 248.917 40.832 249.722 36.791 C 250.164 34.568,250.563 32.525,250.608 32.250 C 250.653 31.975,250.801 31.225,250.937 30.583 C 251.073 29.942,251.215 29.229,251.253 29.000 C 251.290 28.771,251.475 27.833,251.663 26.917 C 251.852 26.000,252.111 24.688,252.241 24.000 C 252.370 23.313,252.746 21.438,253.077 19.833 C 253.408 18.229,253.711 16.703,253.751 16.441 C 253.790 16.179,253.868 15.821,253.924 15.645 C 253.980 15.468,254.053 15.120,254.088 14.870 C 254.122 14.621,254.236 14.004,254.341 13.500 C 254.447 12.996,254.571 12.265,254.616 11.875 L 254.700 11.167 252.011 11.167 C 250.004 11.167,249.308 11.219,249.263 11.375 M149.491 13.167 C 149.594 13.763,149.793 14.775,149.935 15.417 C 150.076 16.058,150.218 16.787,150.250 17.037 C 150.282 17.286,150.354 17.635,150.410 17.811 C 150.466 17.988,150.541 18.346,150.577 18.608 C 150.612 18.869,150.766 19.608,150.918 20.250 C 151.166 21.295,151.417 22.547,151.835 24.833 C 151.911 25.246,152.017 25.696,152.071 25.833 C 152.158 26.053,151.483 26.083,146.593 26.083 L 141.016 26.083 141.311 25.583 C 141.472 25.308,143.283 22.062,145.335 18.370 C 147.631 14.237,149.110 11.738,149.184 11.870 C 149.250 11.988,149.388 12.571,149.491 13.167 M287.833 12.005 C 279.208 12.842,275.337 14.765,273.851 18.951 C 273.155 20.911,273.716 21.266,277.099 21.010 C 278.374 20.914,279.942 20.833,280.583 20.831 C 282.823 20.825,282.684 20.277,280.395 20.086 C 278.417 19.922,278.362 19.574,280.250 19.181 C 280.800 19.067,281.550 18.910,281.917 18.833 C 283.673 18.466,284.526 18.317,285.829 18.152 C 286.605 18.054,287.299 17.938,287.370 17.894 C 287.634 17.731,287.484 18.018,286.902 18.790 C 286.573 19.226,286.164 19.771,285.992 20.000 C 285.820 20.229,285.566 20.567,285.426 20.750 C 285.287 20.933,284.817 21.571,284.383 22.167 C 283.949 22.762,283.549 23.287,283.495 23.333 C 283.441 23.379,283.029 23.942,282.579 24.583 C 282.129 25.225,281.718 25.787,281.664 25.833 C 281.611 25.879,281.406 26.148,281.209 26.430 C 280.881 26.900,280.726 26.961,279.384 27.155 C 277.071 27.488,276.818 27.636,275.675 29.320 C 275.190 30.036,274.944 30.579,274.933 30.964 C 274.916 31.577,275.012 31.675,276.044 32.089 L 276.672 32.340 275.962 33.295 C 275.571 33.820,275.206 34.287,275.149 34.333 C 275.093 34.379,274.916 34.672,274.756 34.984 C 274.596 35.297,274.335 35.692,274.176 35.862 C 274.017 36.033,273.781 36.377,273.652 36.628 C 273.523 36.878,273.380 37.121,273.334 37.167 C 273.288 37.212,273.101 37.550,272.918 37.917 C 272.736 38.283,272.544 38.621,272.492 38.667 C 271.329 39.696,271.717 41.776,273.012 41.449 C 274.196 41.149,274.922 40.376,275.649 38.642 C 275.960 37.899,278.008 34.649,278.447 34.200 C 278.564 34.081,278.730 33.858,278.816 33.704 C 278.955 33.456,279.226 33.549,281.195 34.526 C 282.417 35.132,284.392 36.096,285.583 36.669 C 289.284 38.448,291.990 39.829,293.417 40.668 C 296.269 42.345,297.501 42.751,297.883 42.141 C 298.585 41.021,298.387 37.391,297.581 36.605 C 296.977 36.014,293.429 34.192,290.083 32.752 C 289.717 32.594,289.117 32.328,288.750 32.160 C 288.383 31.992,287.896 31.803,287.667 31.739 C 287.438 31.675,286.950 31.491,286.583 31.328 C 286.217 31.166,285.167 30.756,284.250 30.416 C 283.333 30.076,282.453 29.730,282.294 29.649 C 282.135 29.567,281.872 29.491,281.711 29.480 C 281.087 29.438,282.469 29.205,283.452 29.186 C 284.021 29.176,285.071 29.091,285.785 28.998 C 286.499 28.906,287.683 28.753,288.417 28.659 C 289.150 28.564,290.162 28.417,290.667 28.331 C 293.256 27.889,294.624 27.628,295.000 27.505 C 295.229 27.430,295.979 27.200,296.667 26.994 C 297.354 26.789,298.306 26.443,298.781 26.227 C 299.256 26.010,299.693 25.833,299.751 25.833 C 299.809 25.833,299.967 25.740,300.100 25.625 C 300.234 25.510,300.742 25.079,301.228 24.667 C 303.504 22.738,304.730 19.106,303.931 16.662 C 302.748 13.046,296.307 11.183,287.833 12.005 M193.000 16.183 C 192.679 16.253,191.967 16.358,191.417 16.417 C 190.867 16.475,189.856 16.612,189.171 16.720 L 187.925 16.917 187.798 17.667 C 187.729 18.079,187.591 18.808,187.492 19.285 L 187.312 20.154 185.878 20.202 C 184.583 20.245,184.440 20.282,184.412 20.583 C 184.374 20.983,184.071 22.577,183.911 23.212 L 183.797 23.667 185.214 23.667 L 186.631 23.667 186.478 24.375 C 186.394 24.765,186.246 25.421,186.149 25.833 C 186.051 26.246,185.938 26.837,185.898 27.148 C 185.858 27.459,185.789 27.770,185.746 27.840 C 185.703 27.909,185.627 28.293,185.577 28.691 C 185.527 29.090,185.184 30.917,184.815 32.750 C 183.906 37.264,183.998 38.410,185.383 39.835 C 186.579 41.067,188.889 41.547,191.558 41.120 C 193.493 40.810,193.333 40.926,193.619 39.624 C 194.100 37.436,194.103 37.265,193.650 37.407 C 191.228 38.169,189.618 37.199,189.932 35.167 C 189.982 34.846,190.049 34.358,190.082 34.083 C 190.200 33.108,190.506 31.766,190.632 31.675 C 190.702 31.625,190.748 31.400,190.734 31.177 C 190.721 30.953,190.816 30.278,190.947 29.677 C 191.077 29.075,191.215 28.369,191.253 28.108 C 191.291 27.846,191.369 27.482,191.427 27.299 C 191.485 27.116,191.552 26.806,191.575 26.608 C 191.635 26.096,191.817 25.195,192.028 24.375 L 192.210 23.667 194.328 23.667 L 196.447 23.667 196.661 22.458 C 196.779 21.794,196.931 21.100,196.997 20.917 C 197.248 20.228,197.076 20.167,194.903 20.167 C 193.765 20.167,192.833 20.148,192.833 20.125 C 192.833 20.102,193.016 19.185,193.239 18.086 C 193.462 16.988,193.631 16.081,193.614 16.072 C 193.597 16.063,193.321 16.113,193.000 16.183 M175.417 16.435 C 174.144 16.627,173.328 16.730,172.407 16.817 C 172.237 16.833,171.727 18.440,171.803 18.719 C 171.824 18.793,171.752 19.150,171.644 19.511 L 171.447 20.167 170.057 20.167 C 169.292 20.167,168.666 20.223,168.666 20.292 C 168.665 20.441,168.392 21.967,168.189 22.958 L 168.045 23.667 169.442 23.667 C 170.804 23.667,170.838 23.676,170.759 24.042 C 170.459 25.427,169.970 27.805,169.927 28.083 C 169.772 29.089,169.473 30.616,169.390 30.833 C 169.337 30.971,169.270 31.271,169.241 31.500 C 169.212 31.729,169.154 32.067,169.112 32.250 C 167.728 38.295,168.482 40.334,172.384 41.101 C 174.462 41.509,178.146 40.975,177.744 40.323 C 177.707 40.263,177.751 39.960,177.843 39.649 C 177.934 39.338,178.050 38.748,178.100 38.339 C 178.151 37.929,178.235 37.525,178.287 37.440 C 178.344 37.348,178.187 37.336,177.900 37.410 C 176.184 37.856,174.752 37.616,174.321 36.811 C 174.138 36.469,174.074 34.785,174.234 34.526 C 174.277 34.456,174.356 34.040,174.409 33.604 C 174.461 33.167,174.584 32.459,174.683 32.030 C 174.781 31.601,174.894 31.063,174.933 30.833 C 174.972 30.604,175.047 30.229,175.101 30.000 C 175.155 29.771,175.233 29.396,175.275 29.167 C 175.317 28.938,175.464 28.225,175.602 27.583 C 175.740 26.942,175.875 26.267,175.901 26.083 C 175.928 25.900,176.013 25.488,176.089 25.167 C 176.248 24.499,176.273 24.362,176.308 23.958 C 176.331 23.697,176.556 23.667,178.466 23.667 L 180.598 23.667 180.886 22.292 C 181.044 21.535,181.218 20.748,181.273 20.542 C 181.372 20.167,181.371 20.167,179.208 20.167 L 177.043 20.167 177.334 18.708 C 177.928 15.730,178.172 16.020,175.417 16.435 M297.905 17.742 C 301.330 18.458,302.151 19.653,300.350 21.299 C 299.361 22.203,297.645 23.042,295.333 23.750 C 293.939 24.178,293.574 24.282,292.250 24.630 C 291.883 24.727,291.283 24.885,290.917 24.982 C 288.911 25.512,284.358 26.414,284.248 26.303 C 284.210 26.265,284.345 26.050,284.549 25.825 C 284.753 25.601,285.063 25.194,285.237 24.922 C 285.412 24.650,285.861 24.043,286.236 23.572 C 286.610 23.101,287.067 22.505,287.250 22.247 C 287.433 21.989,287.658 21.697,287.750 21.597 C 288.564 20.715,289.527 18.282,289.244 17.824 C 288.939 17.330,295.633 17.266,297.905 17.742 M359.374 18.264 C 358.087 19.279,357.148 21.855,357.966 22.128 C 358.080 22.165,358.278 22.302,358.408 22.432 C 359.557 23.581,362.167 21.439,362.167 19.347 C 362.167 17.873,360.628 17.276,359.374 18.264 M51.750 19.819 C 49.036 20.532,44.506 25.000,43.311 28.141 C 42.986 28.997,43.033 28.327,43.432 26.411 C 43.660 25.314,43.878 24.229,43.915 24.000 C 43.953 23.771,44.060 23.208,44.153 22.750 C 44.414 21.469,44.448 21.296,44.569 20.625 L 44.682 20.000 41.937 20.000 L 39.193 20.000 39.066 20.542 C 38.996 20.840,38.920 21.196,38.896 21.333 C 38.872 21.471,38.800 21.846,38.735 22.167 C 38.670 22.488,38.600 22.863,38.580 23.000 C 38.559 23.137,38.416 23.813,38.261 24.500 C 38.107 25.188,37.957 25.900,37.929 26.083 C 37.799 26.909,37.626 27.832,37.414 28.833 C 37.287 29.429,37.139 30.179,37.083 30.500 C 37.028 30.821,36.796 31.983,36.568 33.083 C 36.340 34.183,36.122 35.271,36.085 35.500 C 36.047 35.729,35.933 36.329,35.831 36.833 C 35.728 37.337,35.611 37.938,35.570 38.167 C 35.530 38.396,35.452 38.771,35.397 39.000 C 35.343 39.229,35.265 39.642,35.225 39.917 C 35.184 40.192,35.125 40.497,35.092 40.595 C 35.052 40.716,35.909 40.769,37.801 40.761 L 40.568 40.750 40.780 39.750 C 40.897 39.200,41.027 38.525,41.070 38.250 C 41.604 34.827,41.919 33.853,43.027 32.205 C 46.772 26.633,49.620 24.250,51.851 24.822 C 52.311 24.940,52.709 25.009,52.737 24.976 C 52.790 24.914,53.370 23.210,53.438 22.917 C 53.459 22.825,53.665 22.115,53.896 21.338 C 54.127 20.562,54.284 19.895,54.246 19.857 C 54.108 19.719,52.240 19.690,51.750 19.819 M66.750 19.819 C 61.741 20.780,55.879 27.295,54.891 33.000 C 54.851 33.229,54.760 33.642,54.688 33.917 C 54.226 35.681,54.705 38.111,55.812 39.620 C 58.143 42.797,63.324 40.720,67.172 35.067 C 67.478 34.618,67.770 34.212,67.822 34.167 C 67.874 34.121,68.101 33.717,68.326 33.270 C 68.927 32.078,68.914 32.466,68.244 35.771 C 67.911 37.410,67.608 38.989,67.570 39.282 C 67.531 39.574,67.424 40.010,67.333 40.251 C 67.242 40.492,67.167 40.721,67.167 40.761 C 67.167 40.874,71.895 40.846,72.476 40.730 C 72.761 40.673,72.961 40.572,72.920 40.505 C 72.879 40.438,73.107 39.116,73.427 37.567 C 73.746 36.018,74.043 34.525,74.085 34.250 C 74.127 33.975,74.584 31.650,75.100 29.083 C 76.176 23.732,76.235 23.437,76.494 22.083 C 76.750 20.748,76.743 20.777,76.878 20.561 C 77.171 20.091,76.517 19.982,73.621 20.016 C 72.023 20.034,70.623 19.993,70.510 19.923 C 70.217 19.742,67.540 19.668,66.750 19.819 M91.083 19.826 C 81.073 21.458,74.941 36.299,82.648 40.243 C 84.425 41.153,87.538 41.381,89.917 40.777 C 90.467 40.637,91.142 40.485,91.417 40.439 C 91.881 40.360,94.458 39.431,94.597 39.292 C 94.631 39.258,94.811 38.459,94.997 37.517 C 95.182 36.576,95.380 35.622,95.436 35.398 L 95.538 34.991 94.243 35.581 C 88.075 38.392,84.435 36.938,85.163 31.955 C 85.968 26.450,89.277 22.873,93.229 23.235 C 93.860 23.292,94.460 23.392,94.563 23.457 C 94.666 23.521,94.900 23.596,95.083 23.623 C 95.267 23.650,95.778 23.791,96.219 23.937 C 96.660 24.082,97.064 24.159,97.115 24.107 C 97.206 24.016,97.983 20.500,97.912 20.500 C 97.892 20.500,97.285 20.349,96.563 20.163 C 95.098 19.788,92.355 19.619,91.083 19.826 M210.983 19.842 C 210.653 19.921,210.194 20.019,209.963 20.061 C 206.070 20.767,201.267 25.898,199.256 31.500 C 198.763 32.872,198.276 35.791,198.421 36.500 C 198.468 36.729,198.535 37.144,198.570 37.423 C 198.652 38.074,199.397 39.431,200.053 40.125 C 202.691 42.913,207.894 40.273,211.667 34.233 C 212.079 33.573,212.513 32.894,212.631 32.725 C 212.878 32.369,212.905 32.195,212.234 35.304 C 212.003 36.374,211.782 37.475,211.743 37.750 C 211.675 38.232,211.405 39.683,211.240 40.458 L 211.160 40.833 213.913 40.833 C 215.428 40.833,216.667 40.809,216.667 40.780 C 216.667 40.751,216.821 40.019,217.010 39.155 C 217.199 38.291,217.384 37.369,217.421 37.108 C 217.458 36.846,217.534 36.488,217.590 36.311 C 217.646 36.135,217.720 35.786,217.753 35.537 C 217.787 35.287,218.048 33.921,218.333 32.500 C 218.618 31.079,218.881 29.729,218.919 29.500 C 218.956 29.271,219.179 28.183,219.414 27.083 C 219.649 25.983,219.871 24.896,219.908 24.667 C 219.945 24.438,220.098 23.688,220.247 23.000 C 220.396 22.313,220.552 21.503,220.595 21.201 C 220.637 20.899,220.689 20.561,220.711 20.451 C 220.740 20.302,219.881 20.223,217.417 20.145 C 215.583 20.088,213.783 19.958,213.417 19.858 C 212.645 19.646,211.834 19.641,210.983 19.842 M234.750 19.989 C 228.108 21.467,223.256 27.409,223.167 34.174 C 223.108 38.633,226.654 41.811,231.073 41.259 C 231.570 41.196,232.338 41.114,232.780 41.076 C 233.222 41.038,233.827 40.935,234.125 40.848 C 234.423 40.761,234.667 40.716,234.667 40.748 C 234.667 40.781,235.500 40.516,236.518 40.160 C 238.170 39.584,238.930 39.124,238.740 38.817 C 238.705 38.760,238.825 37.942,239.008 36.999 C 239.399 34.981,239.421 35.033,238.392 35.550 C 231.586 38.966,227.648 36.644,229.402 30.250 C 230.968 24.543,234.758 22.284,239.913 23.985 C 241.168 24.399,241.156 24.409,241.431 22.583 C 241.459 22.400,241.551 21.892,241.636 21.455 C 241.824 20.493,241.999 20.603,239.463 20.090 C 237.037 19.598,236.551 19.588,234.750 19.989 M115.534 21.477 C 114.773 22.269,112.602 24.516,110.708 26.472 L 107.266 30.027 107.758 30.915 C 108.029 31.403,109.407 33.829,110.821 36.305 L 113.393 40.807 116.446 40.826 C 118.126 40.837,119.500 40.805,119.500 40.757 C 119.500 40.671,116.186 34.832,114.940 32.722 C 114.606 32.157,114.333 31.658,114.333 31.614 C 114.333 31.570,114.029 31.033,113.657 30.421 C 113.285 29.809,113.004 29.246,113.032 29.171 C 113.096 28.999,115.270 26.708,118.650 23.250 C 120.084 21.783,121.352 20.459,121.469 20.307 C 121.665 20.053,121.492 20.031,119.299 20.034 L 116.917 20.037 115.534 21.477 M257.085 24.042 C 254.998 26.173,252.806 28.412,252.215 29.018 L 251.139 30.120 252.178 31.935 C 252.749 32.933,254.120 35.344,255.224 37.292 L 257.232 40.833 260.283 40.833 C 261.961 40.833,263.333 40.788,263.333 40.733 C 263.333 40.679,262.931 39.947,262.440 39.108 C 261.949 38.270,261.318 37.171,261.037 36.667 C 260.757 36.162,259.698 34.288,258.685 32.501 L 256.842 29.251 257.699 28.383 C 258.171 27.906,258.638 27.561,258.737 27.618 C 258.836 27.674,258.863 27.661,258.797 27.588 C 258.619 27.390,259.075 26.871,262.316 23.583 C 263.942 21.933,265.328 20.490,265.396 20.375 C 265.493 20.212,265.010 20.167,263.199 20.167 L 260.879 20.167 257.085 24.042 M387.351 23.097 C 382.999 24.727,377.556 29.387,377.074 31.895 C 377.004 32.260,376.740 32.592,376.195 33.000 C 375.767 33.321,375.318 33.677,375.196 33.792 C 375.075 33.906,374.921 34.000,374.853 34.000 C 374.785 34.000,374.584 34.135,374.406 34.300 C 371.341 37.146,370.783 33.968,373.750 30.558 C 373.842 30.453,374.142 30.094,374.417 29.759 C 374.692 29.425,375.235 28.799,375.623 28.368 C 376.581 27.304,376.624 26.176,375.776 24.360 C 375.537 23.847,374.059 24.053,373.500 24.676 C 373.454 24.727,372.817 25.177,372.084 25.676 C 370.809 26.543,367.402 29.811,364.979 32.490 C 363.797 33.797,363.389 33.914,363.554 32.900 C 363.632 32.420,364.351 31.176,364.909 30.556 C 365.005 30.449,365.250 30.144,365.453 29.878 C 365.656 29.612,366.031 29.173,366.286 28.903 C 368.377 26.691,368.585 25.752,367.056 25.426 C 365.770 25.151,363.767 26.480,362.736 28.292 C 362.567 28.590,362.378 28.833,362.318 28.833 C 362.257 28.833,362.114 29.058,362.000 29.333 C 361.886 29.608,361.732 29.833,361.658 29.833 C 361.508 29.833,360.333 32.197,360.333 32.499 C 360.333 32.731,360.122 32.944,359.250 33.588 C 358.883 33.860,358.546 34.120,358.500 34.166 C 357.496 35.188,355.430 35.799,354.448 35.364 C 352.553 34.526,352.777 33.236,355.255 30.725 C 356.861 29.098,357.833 27.883,357.833 27.504 C 357.833 27.410,357.890 27.333,357.959 27.333 C 358.092 27.333,358.322 26.843,358.688 25.782 C 359.655 22.982,355.347 23.853,353.079 26.917 C 352.807 27.283,352.538 27.621,352.481 27.667 C 352.313 27.800,350.922 30.043,350.723 30.500 C 350.298 31.477,350.167 31.867,350.167 32.156 C 350.167 32.325,349.894 32.678,349.560 32.940 C 349.227 33.202,348.870 33.494,348.769 33.588 C 348.035 34.267,346.032 35.343,345.584 35.299 C 344.830 35.225,344.949 32.500,345.706 32.500 C 345.776 32.500,345.833 32.426,345.833 32.335 C 345.833 32.187,346.410 31.353,347.334 30.167 C 347.513 29.938,348.073 29.300,348.579 28.750 C 349.811 27.413,349.945 26.592,349.235 24.735 C 348.875 23.790,347.693 23.814,346.696 24.785 C 346.575 24.903,346.412 25.000,346.333 25.000 C 346.255 25.000,346.091 25.094,345.970 25.208 C 345.848 25.323,345.187 25.842,344.499 26.362 C 343.097 27.423,340.838 29.594,339.583 31.087 C 337.491 33.577,336.651 34.105,336.901 32.773 C 336.989 32.306,338.209 30.372,338.651 30.000 C 338.705 29.954,339.025 29.574,339.361 29.156 C 339.697 28.737,340.237 28.130,340.560 27.807 C 341.617 26.749,341.550 25.640,340.416 25.428 C 339.031 25.168,338.053 25.718,336.572 27.588 C 336.303 27.927,335.954 28.355,335.797 28.539 C 335.639 28.722,335.465 29.014,335.410 29.186 C 335.356 29.359,335.248 29.500,335.171 29.500 C 335.094 29.500,334.682 30.205,334.254 31.066 C 333.455 32.678,333.049 33.152,331.805 33.931 C 331.408 34.180,331.046 34.438,331.000 34.506 C 330.804 34.794,329.618 35.333,329.179 35.333 C 327.685 35.333,328.948 32.201,331.561 29.425 C 333.310 27.567,333.641 26.216,332.763 24.522 C 332.341 23.710,330.690 24.163,329.196 25.500 C 329.042 25.637,328.582 25.975,328.172 26.250 C 327.393 26.773,323.617 30.495,321.939 32.394 C 319.904 34.697,319.813 32.901,321.842 30.472 C 322.158 30.094,322.529 29.638,322.667 29.460 C 322.804 29.281,323.067 28.973,323.250 28.775 C 325.041 26.839,325.298 26.315,324.708 25.794 C 323.512 24.739,321.557 25.597,319.876 27.917 C 319.676 28.192,319.398 28.567,319.257 28.750 C 318.773 29.378,318.167 30.348,318.167 30.494 C 318.167 30.573,318.107 30.664,318.034 30.694 C 317.854 30.769,317.167 32.266,317.167 32.582 C 317.167 32.720,317.106 32.833,317.031 32.833 C 316.957 32.833,316.751 32.969,316.573 33.134 C 314.371 35.183,312.000 35.757,312.000 34.241 C 312.000 33.467,313.417 30.490,314.019 30.000 C 314.075 29.954,314.375 29.537,314.686 29.072 C 314.996 28.608,315.644 27.642,316.125 26.926 C 317.489 24.897,317.411 23.000,315.964 23.000 C 315.184 23.000,312.659 25.379,310.921 27.750 C 310.298 28.599,308.210 30.694,306.923 31.760 C 306.377 32.213,305.665 32.831,305.340 33.135 C 304.692 33.740,303.358 34.667,303.135 34.667 C 302.701 34.667,302.612 31.992,303.037 31.761 C 303.929 31.279,307.331 28.041,307.999 27.040 C 308.227 26.697,308.456 26.379,308.507 26.333 C 308.730 26.135,309.186 24.958,309.114 24.770 C 308.747 23.814,305.721 24.029,304.833 25.073 C 304.604 25.343,304.261 25.718,304.069 25.907 C 303.878 26.096,303.428 26.621,303.069 27.073 C 302.710 27.526,302.246 28.083,302.037 28.311 C 301.829 28.538,301.495 28.993,301.296 29.321 C 301.097 29.648,300.892 29.954,300.840 30.000 C 299.927 30.806,299.464 33.581,299.936 35.417 C 300.077 35.967,300.233 36.585,300.282 36.792 C 300.332 36.998,300.438 37.167,300.519 37.167 C 300.600 37.167,300.667 37.241,300.667 37.332 C 300.667 37.879,301.996 38.833,302.758 38.833 C 303.852 38.833,305.477 37.466,307.508 34.838 C 307.824 34.428,308.289 33.866,308.541 33.588 C 308.793 33.310,308.999 33.039,308.999 32.984 C 309.000 32.930,309.196 32.667,309.436 32.401 C 309.676 32.135,309.836 31.992,309.792 32.083 C 309.584 32.511,309.165 33.519,308.751 34.583 C 308.502 35.225,308.231 35.922,308.149 36.133 C 307.136 38.737,309.381 40.447,311.843 38.948 C 312.732 38.406,313.301 37.949,314.824 36.555 C 317.075 34.493,317.080 34.490,317.129 34.885 C 317.654 39.089,319.246 39.756,321.382 36.667 C 321.667 36.254,321.979 35.835,322.075 35.736 C 322.171 35.636,322.400 35.349,322.583 35.098 C 323.830 33.388,326.607 30.606,327.901 29.771 L 328.386 29.458 328.046 29.937 C 327.858 30.201,327.497 30.792,327.242 31.250 C 326.987 31.708,326.632 32.346,326.453 32.667 C 326.274 32.987,326.002 33.438,325.849 33.667 C 324.733 35.339,324.323 37.850,324.988 38.941 C 325.794 40.263,327.557 39.946,329.643 38.106 C 331.341 36.608,331.983 36.024,332.651 35.368 C 333.464 34.570,333.580 34.610,333.752 35.747 C 334.006 37.419,334.784 38.667,335.572 38.667 C 336.256 38.667,336.551 38.374,338.595 35.667 C 340.540 33.091,343.946 29.667,344.563 29.667 C 344.633 29.667,344.543 29.873,344.364 30.125 C 343.797 30.925,342.321 33.563,341.636 35.000 C 341.048 36.235,340.892 38.090,341.311 38.874 C 341.869 39.919,343.854 40.006,344.938 39.033 C 345.111 38.877,345.627 38.450,346.083 38.083 C 346.539 37.717,347.625 36.726,348.498 35.881 L 350.083 34.346 350.191 35.131 C 350.964 40.744,354.249 41.211,358.929 36.372 L 360.276 34.981 360.504 35.949 C 360.904 37.644,361.482 38.575,362.169 38.633 C 362.939 38.698,363.173 38.474,365.352 35.591 C 366.672 33.844,366.801 33.696,368.332 32.162 C 370.652 29.836,371.698 29.096,370.919 30.330 C 370.688 30.695,370.500 31.040,370.500 31.096 C 370.500 31.152,370.359 31.398,370.186 31.641 C 369.819 32.158,369.079 33.467,368.616 34.417 C 368.438 34.783,368.231 35.206,368.156 35.356 C 367.415 36.850,367.660 38.777,368.680 39.472 C 370.016 40.382,372.006 39.187,376.189 34.958 C 376.960 34.179,376.934 34.174,377.051 35.125 C 377.272 36.923,378.810 39.000,379.922 39.000 C 380.491 39.000,382.833 38.065,382.833 37.838 C 382.833 37.773,383.009 37.640,383.224 37.542 C 383.732 37.311,385.235 35.961,386.958 34.190 C 387.715 33.412,388.333 32.819,388.333 32.872 C 388.333 32.925,388.191 33.257,388.016 33.609 C 387.842 33.962,387.497 34.700,387.250 35.250 C 386.192 37.605,385.392 39.104,385.041 39.388 C 384.834 39.555,384.571 39.780,384.456 39.888 C 384.342 39.995,383.798 40.454,383.249 40.906 C 378.548 44.779,375.375 50.670,377.992 50.666 C 378.826 50.665,381.803 48.218,383.086 46.479 C 383.178 46.353,383.619 45.762,384.065 45.167 C 384.511 44.571,384.953 43.915,385.048 43.708 C 385.143 43.502,385.274 43.333,385.340 43.333 C 385.406 43.333,385.553 43.108,385.667 42.833 C 385.781 42.558,385.940 42.333,386.020 42.333 C 386.101 42.333,386.167 42.270,386.167 42.192 C 386.167 41.687,387.520 39.882,388.472 39.117 C 389.065 38.640,389.831 38.025,390.174 37.750 C 394.556 34.235,394.661 34.129,394.664 33.208 C 394.667 32.429,394.557 32.352,394.073 32.798 C 393.895 32.962,393.225 33.467,392.583 33.920 C 391.942 34.374,391.042 35.027,390.583 35.372 C 389.466 36.212,389.455 36.194,390.179 34.708 C 390.778 33.480,391.384 32.176,392.140 30.488 C 393.361 27.762,393.320 26.023,392.033 26.005 C 391.171 25.993,390.064 26.990,387.504 30.083 C 386.299 31.539,385.078 32.786,384.112 33.546 C 383.853 33.750,383.366 34.159,383.029 34.455 C 382.087 35.283,381.032 35.735,380.552 35.516 C 378.804 34.720,380.595 31.240,383.996 28.827 C 384.314 28.601,384.675 28.323,384.799 28.208 C 384.923 28.094,385.131 28.000,385.262 28.000 C 385.393 28.000,385.501 27.944,385.501 27.875 C 385.502 27.806,385.671 27.672,385.876 27.576 C 386.082 27.481,386.550 27.248,386.917 27.059 C 387.283 26.870,387.980 26.515,388.464 26.271 C 392.120 24.425,391.155 21.672,387.351 23.097 M69.444 23.400 C 70.689 23.731,70.655 23.645,70.284 25.537 C 69.870 27.655,68.084 30.303,64.596 33.973 C 61.092 37.658,59.160 36.302,60.826 31.328 C 62.886 25.179,65.858 22.445,69.444 23.400 M213.367 23.518 C 213.853 23.619,214.308 23.756,214.378 23.821 C 214.667 24.089,213.854 27.311,213.293 28.126 C 211.012 31.435,208.166 34.672,206.716 35.607 C 204.000 37.359,203.321 34.876,205.207 30.083 C 207.278 24.818,209.815 22.776,213.367 23.518 " stroke="none" fill="#040404" fill-rule="evenodd"></path><path id="path1" d="M155.683 4.865 C 155.733 5.519,155.967 5.923,155.983 5.385 C 155.993 5.092,155.925 4.807,155.833 4.750 C 155.742 4.693,155.674 4.745,155.683 4.865 M5.616 5.399 C 5.548 5.572,5.531 5.754,5.579 5.802 C 5.731 5.954,5.865 5.705,5.801 5.388 C 5.743 5.098,5.734 5.099,5.616 5.399 M5.167 8.625 C 5.167 8.694,8.167 8.729,11.833 8.703 C 16.570 8.669,18.500 8.708,18.500 8.838 C 18.500 8.938,18.575 8.973,18.667 8.917 C 19.247 8.558,18.321 8.500,12.000 8.500 C 8.242 8.500,5.167 8.556,5.167 8.625 M26.667 8.625 C 26.666 8.738,34.027 8.734,38.583 8.618 C 39.592 8.592,37.323 8.555,33.542 8.536 C 29.760 8.516,26.667 8.556,26.667 8.625 M18.178 10.625 C 18.189 11.031,18.206 11.045,18.333 10.750 C 18.529 10.295,18.529 10.167,18.333 10.167 C 18.242 10.167,18.172 10.373,18.178 10.625 M156.848 11.000 C 156.853 11.137,156.921 11.400,157.000 11.583 L 157.143 11.917 157.152 11.583 C 157.157 11.400,157.089 11.137,157.000 11.000 C 156.856 10.778,156.839 10.778,156.848 11.000 M148.912 12.007 C 148.853 12.103,148.878 12.272,148.968 12.382 C 149.057 12.493,149.168 12.733,149.213 12.917 C 149.276 13.176,149.299 13.150,149.314 12.802 C 149.325 12.555,149.257 12.306,149.164 12.248 C 149.071 12.191,149.038 12.074,149.090 11.988 C 149.143 11.903,149.149 11.833,149.103 11.833 C 149.057 11.833,148.971 11.912,148.912 12.007 M248.783 12.399 C 248.715 12.572,248.698 12.754,248.746 12.802 C 248.898 12.954,249.032 12.705,248.968 12.388 C 248.910 12.098,248.901 12.099,248.783 12.399 M141.838 13.027 C 141.625 13.407,141.537 13.663,141.643 13.598 C 141.868 13.459,142.389 12.500,142.292 12.403 C 142.256 12.367,142.051 12.648,141.838 13.027 M149.305 13.418 C 149.164 13.558,149.339 14.167,149.519 14.167 C 149.689 14.167,149.691 14.037,149.525 13.616 C 149.460 13.451,149.360 13.362,149.305 13.418 M110.314 14.464 C 110.259 14.795,110.283 14.950,110.376 14.858 C 110.460 14.774,110.500 14.528,110.466 14.311 C 110.414 13.977,110.390 14.001,110.314 14.464 M17.299 14.991 C 17.259 15.261,17.279 15.450,17.344 15.410 C 17.510 15.307,17.645 14.500,17.496 14.500 C 17.427 14.500,17.339 14.721,17.299 14.991 M248.104 15.923 C 248.047 16.072,248.006 16.319,248.014 16.472 C 248.022 16.625,248.095 16.529,248.175 16.258 C 248.333 15.732,248.277 15.472,248.104 15.923 M146.462 16.421 C 146.303 16.739,146.228 16.998,146.295 16.996 C 146.362 16.994,146.546 16.731,146.705 16.413 C 146.863 16.094,146.938 15.835,146.871 15.837 C 146.805 15.840,146.620 16.102,146.462 16.421 M191.917 16.174 C 191.684 16.280,191.785 16.295,192.250 16.224 C 192.617 16.168,192.948 16.095,192.986 16.061 C 193.129 15.935,192.237 16.029,191.917 16.174 M173.333 16.500 C 172.942 16.625,172.950 16.634,173.468 16.650 C 173.797 16.660,173.978 16.599,173.917 16.500 C 173.860 16.408,173.799 16.341,173.782 16.350 C 173.764 16.359,173.563 16.427,173.333 16.500 M145.752 17.786 L 145.460 18.250 145.846 17.880 C 146.058 17.676,146.190 17.467,146.138 17.416 C 146.087 17.365,145.913 17.532,145.752 17.786 M109.592 17.970 C 109.524 18.275,109.509 18.565,109.559 18.615 C 109.685 18.740,109.883 17.898,109.791 17.632 C 109.750 17.514,109.661 17.666,109.592 17.970 M253.353 18.778 C 253.342 18.885,253.285 19.110,253.225 19.278 C 253.142 19.515,253.164 19.541,253.324 19.393 C 253.438 19.288,253.495 19.063,253.452 18.893 C 253.408 18.723,253.363 18.671,253.353 18.778 M247.345 19.458 C 247.355 19.864,247.373 19.879,247.500 19.583 C 247.696 19.128,247.696 19.000,247.500 19.000 C 247.408 19.000,247.339 19.206,247.345 19.458 M95.167 19.731 C 95.167 19.766,95.354 19.830,95.583 19.874 C 95.813 19.918,96.000 19.889,96.000 19.810 C 96.000 19.731,95.813 19.667,95.583 19.667 C 95.354 19.667,95.167 19.695,95.167 19.731 M54.285 20.360 C 54.221 20.603,54.125 20.941,54.073 21.110 C 54.021 21.278,54.101 21.206,54.250 20.949 C 54.399 20.691,54.494 20.354,54.461 20.199 C 54.419 20.001,54.367 20.049,54.285 20.360 M121.169 20.748 C 120.859 21.067,120.638 21.354,120.678 21.385 C 120.718 21.417,121.002 21.155,121.311 20.804 C 122.012 20.007,121.922 19.971,121.169 20.748 M259.900 20.805 C 259.634 21.064,259.269 21.458,259.088 21.680 C 258.908 21.902,259.152 21.711,259.630 21.256 C 260.109 20.801,260.500 20.408,260.500 20.381 C 260.500 20.260,260.347 20.368,259.900 20.805 M264.583 21.333 C 264.039 21.883,263.676 22.333,263.776 22.333 C 263.876 22.333,264.320 21.918,264.763 21.411 C 265.205 20.903,265.602 20.453,265.645 20.411 C 265.687 20.368,265.689 20.333,265.648 20.333 C 265.606 20.333,265.128 20.783,264.583 21.333 M115.500 21.250 C 115.095 21.662,114.801 22.000,114.847 22.000 C 114.893 22.000,115.262 21.662,115.667 21.250 C 116.072 20.837,116.365 20.500,116.319 20.500 C 116.274 20.500,115.905 20.837,115.500 21.250 M137.377 21.114 C 137.091 21.731,137.206 21.760,137.560 21.162 C 137.721 20.889,137.792 20.667,137.718 20.668 C 137.644 20.669,137.490 20.869,137.377 21.114 M207.167 21.000 C 206.846 21.176,206.643 21.323,206.717 21.326 C 206.893 21.336,207.833 20.847,207.833 20.746 C 207.833 20.637,207.824 20.640,207.167 21.000 M247.104 20.923 C 247.047 21.072,247.006 21.319,247.014 21.472 C 247.022 21.625,247.095 21.529,247.175 21.258 C 247.333 20.732,247.277 20.472,247.104 20.923 M86.500 21.333 C 86.087 21.607,85.675 21.859,85.583 21.893 C 85.492 21.927,85.454 21.991,85.500 22.036 C 85.546 22.082,86.026 21.829,86.568 21.476 C 87.110 21.122,87.485 20.834,87.401 20.834 C 87.318 20.834,86.912 21.059,86.500 21.333 M184.104 21.090 C 184.047 21.239,184.006 21.486,184.014 21.639 C 184.022 21.792,184.095 21.695,184.175 21.425 C 184.333 20.899,184.277 20.639,184.104 21.090 M196.833 21.823 C 196.833 22.104,196.862 22.333,196.897 22.333 C 197.039 22.333,197.112 21.486,196.978 21.403 C 196.898 21.354,196.833 21.543,196.833 21.823 M76.498 22.208 C 76.496 22.415,76.454 22.771,76.403 23.000 C 76.336 23.300,76.354 23.347,76.466 23.167 C 76.707 22.779,76.846 21.833,76.662 21.833 C 76.573 21.833,76.499 22.002,76.498 22.208 M47.084 22.499 C 46.918 22.683,46.836 22.833,46.903 22.833 C 47.078 22.833,47.554 22.331,47.463 22.241 C 47.421 22.199,47.251 22.315,47.084 22.499 M258.073 22.708 L 257.583 23.250 258.125 22.760 C 258.630 22.304,258.743 22.167,258.615 22.167 C 258.586 22.167,258.342 22.410,258.073 22.708 M151.167 22.750 C 151.167 22.979,151.231 23.167,151.310 23.167 C 151.389 23.167,151.418 22.979,151.374 22.750 C 151.330 22.521,151.266 22.333,151.231 22.333 C 151.195 22.333,151.167 22.521,151.167 22.750 M159.126 22.750 C 159.170 22.979,159.234 23.167,159.269 23.167 C 159.305 23.167,159.333 22.979,159.333 22.750 C 159.333 22.521,159.269 22.333,159.190 22.333 C 159.111 22.333,159.082 22.521,159.126 22.750 M180.929 22.518 C 180.885 22.646,180.827 22.938,180.800 23.167 C 180.750 23.583,180.750 23.583,178.670 23.630 C 177.525 23.656,176.535 23.731,176.469 23.797 C 176.342 23.924,179.998 23.879,180.607 23.747 C 180.874 23.689,180.983 23.514,181.041 23.043 C 181.123 22.390,181.065 22.119,180.929 22.518 M252.611 22.444 C 252.550 22.506,252.508 22.787,252.517 23.069 L 252.534 23.583 252.671 23.001 C 252.814 22.395,252.799 22.257,252.611 22.444 M183.778 22.611 C 183.717 22.672,183.671 22.878,183.677 23.069 C 183.687 23.389,183.701 23.385,183.847 23.017 C 184.011 22.609,183.977 22.412,183.778 22.611 M262.406 23.708 L 261.917 24.250 262.458 23.760 C 262.963 23.304,263.077 23.167,262.948 23.167 C 262.919 23.167,262.675 23.410,262.406 23.708 M69.083 23.500 C 69.140 23.592,69.351 23.661,69.552 23.655 C 69.904 23.644,69.905 23.638,69.583 23.500 C 69.125 23.303,68.961 23.303,69.083 23.500 M167.901 23.537 C 167.929 23.679,168.326 23.766,169.097 23.797 C 169.935 23.832,170.307 23.920,170.458 24.121 C 170.646 24.369,170.667 24.360,170.667 24.032 C 170.667 23.687,170.594 23.667,169.347 23.667 C 168.612 23.667,167.990 23.591,167.943 23.496 C 167.896 23.402,167.877 23.421,167.901 23.537 M211.708 23.448 C 211.869 23.490,212.131 23.490,212.292 23.448 C 212.452 23.406,212.321 23.372,212.000 23.372 C 211.679 23.372,211.548 23.406,211.708 23.448 M235.833 23.484 C 235.833 23.567,236.126 23.623,236.484 23.609 C 236.842 23.595,237.100 23.527,237.057 23.458 C 236.947 23.280,235.833 23.303,235.833 23.484 M194.503 23.625 C 193.359 23.654,192.369 23.731,192.303 23.797 C 192.237 23.863,193.129 23.900,194.287 23.880 C 195.454 23.859,196.467 23.767,196.562 23.672 C 196.656 23.577,196.700 23.516,196.658 23.536 C 196.617 23.556,195.647 23.596,194.503 23.625 M183.731 23.787 C 183.855 23.911,186.356 23.867,186.484 23.738 C 186.523 23.699,185.893 23.667,185.083 23.667 C 184.274 23.667,183.665 23.721,183.731 23.787 M64.782 24.589 C 64.525 24.815,64.381 25.000,64.462 25.000 C 64.542 25.000,64.785 24.813,65.000 24.583 C 65.498 24.053,65.388 24.056,64.782 24.589 M70.278 24.278 C 70.217 24.339,70.171 24.545,70.177 24.736 C 70.187 25.055,70.201 25.051,70.347 24.684 C 70.511 24.276,70.477 24.079,70.278 24.278 M52.909 24.696 C 52.843 24.909,52.705 25.138,52.603 25.206 C 52.473 25.291,52.481 25.329,52.629 25.331 C 52.839 25.333,53.244 24.522,53.103 24.381 C 53.063 24.341,52.976 24.483,52.909 24.696 M112.024 24.753 C 111.808 24.980,111.701 25.167,111.787 25.167 C 111.872 25.167,112.118 24.979,112.333 24.750 C 112.549 24.521,112.655 24.335,112.571 24.336 C 112.486 24.338,112.240 24.525,112.024 24.753 M76.003 24.875 C 76.005 25.178,76.036 25.202,76.167 25.000 C 76.375 24.677,76.375 24.500,76.167 24.500 C 76.075 24.500,76.001 24.669,76.003 24.875 M81.871 25.625 C 81.396 26.232,80.800 27.252,81.117 26.917 C 81.383 26.635,82.504 25.000,82.430 25.000 C 82.392 25.000,82.141 25.281,81.871 25.625 M116.573 25.511 C 116.304 25.792,116.196 25.976,116.334 25.920 C 116.558 25.830,117.269 25.000,117.122 25.000 C 117.089 25.000,116.842 25.230,116.573 25.511 M260.326 25.779 C 259.834 26.296,259.756 26.422,260.097 26.154 C 260.562 25.789,261.265 25.000,261.126 25.000 C 261.095 25.000,260.735 25.351,260.326 25.779 M111.000 25.822 C 110.771 26.073,110.246 26.647,109.835 27.097 C 109.423 27.548,109.667 27.356,110.376 26.671 C 111.086 25.986,111.667 25.404,111.667 25.379 C 111.667 25.225,111.359 25.429,111.000 25.822 M191.854 25.500 C 191.840 25.637,191.787 25.938,191.736 26.167 C 191.656 26.527,191.669 26.543,191.833 26.287 C 191.937 26.124,191.990 25.824,191.950 25.620 C 191.911 25.417,191.867 25.363,191.854 25.500 M254.992 25.800 C 253.710 27.161,253.406 27.617,254.468 26.588 C 255.127 25.949,255.667 25.405,255.667 25.379 C 255.667 25.220,255.356 25.413,254.992 25.800 M44.380 25.875 C 44.054 26.296,43.943 26.555,44.140 26.433 C 44.337 26.311,44.732 25.667,44.610 25.667 C 44.572 25.667,44.468 25.760,44.380 25.875 M69.845 26.292 C 69.855 26.698,69.873 26.712,70.000 26.417 C 70.196 25.961,70.196 25.833,70.000 25.833 C 69.908 25.833,69.839 26.040,69.845 26.292 M251.793 26.583 C 251.749 26.813,251.777 27.000,251.856 27.000 C 251.935 27.000,252.000 26.813,252.000 26.583 C 252.000 26.354,251.971 26.167,251.936 26.167 C 251.901 26.167,251.836 26.354,251.793 26.583 M219.517 26.933 C 219.421 27.281,219.372 27.595,219.409 27.631 C 219.446 27.668,219.554 27.414,219.650 27.067 C 219.746 26.719,219.794 26.405,219.758 26.369 C 219.721 26.332,219.613 26.586,219.517 26.933 M224.998 26.875 C 224.817 27.173,224.668 27.485,224.667 27.569 C 224.667 27.759,224.690 27.728,225.131 26.958 C 225.569 26.193,225.457 26.122,224.998 26.875 M43.333 27.105 C 43.333 27.307,43.290 27.610,43.236 27.778 C 43.143 28.072,43.149 28.071,43.392 27.775 C 43.530 27.606,43.599 27.350,43.544 27.206 C 43.482 27.046,43.512 26.988,43.621 27.055 C 43.719 27.115,43.839 27.058,43.890 26.927 C 43.951 26.767,43.874 26.697,43.657 26.713 C 43.442 26.729,43.333 26.861,43.333 27.105 M169.944 26.778 C 169.883 26.839,169.838 27.045,169.844 27.236 C 169.854 27.555,169.867 27.551,170.014 27.184 C 170.177 26.776,170.144 26.579,169.944 26.778 M62.575 27.349 C 62.429 27.632,62.338 27.894,62.375 27.930 C 62.411 27.966,62.565 27.734,62.717 27.415 C 63.060 26.696,62.941 26.641,62.575 27.349 M114.667 27.417 C 114.356 27.738,114.159 28.000,114.229 28.000 C 114.359 28.000,114.493 27.872,115.067 27.203 C 115.563 26.626,115.294 26.769,114.667 27.417 M86.570 27.611 C 86.409 27.963,86.241 28.318,86.196 28.401 C 86.152 28.484,86.193 28.504,86.287 28.445 C 86.512 28.306,87.053 27.164,86.945 27.056 C 86.899 27.010,86.730 27.260,86.570 27.611 M258.203 27.880 C 257.725 28.364,257.333 28.826,257.333 28.906 C 257.333 29.040,257.810 28.573,258.821 27.449 C 259.514 26.679,259.114 26.957,258.203 27.880 M46.801 27.458 C 46.508 27.800,46.287 28.167,46.375 28.167 C 46.409 28.167,46.604 27.942,46.807 27.667 C 47.209 27.123,47.205 26.988,46.801 27.458 M107.788 27.267 C 107.721 27.334,107.667 27.504,107.667 27.644 C 107.667 27.832,107.716 27.851,107.852 27.715 C 107.954 27.613,108.009 27.443,107.974 27.337 C 107.938 27.232,107.855 27.201,107.788 27.267 M213.359 27.594 C 213.248 27.838,213.236 27.977,213.331 27.918 C 213.576 27.767,213.870 27.167,213.699 27.167 C 213.619 27.167,213.466 27.359,213.359 27.594 M230.444 27.792 L 230.159 28.417 230.496 28.023 C 230.682 27.807,230.833 27.526,230.833 27.398 C 230.833 27.035,230.750 27.119,230.444 27.792 M206.021 28.272 C 205.743 28.881,205.864 28.914,206.204 28.323 C 206.358 28.053,206.425 27.833,206.352 27.833 C 206.280 27.833,206.130 28.031,206.021 28.272 M169.620 28.222 C 169.554 28.390,169.505 28.690,169.511 28.889 C 169.521 29.232,169.529 29.229,169.683 28.844 C 169.773 28.620,169.822 28.320,169.793 28.177 C 169.750 27.963,169.719 27.971,169.620 28.222 M107.444 28.892 C 107.371 29.245,107.354 29.576,107.406 29.628 C 107.458 29.680,107.500 29.593,107.500 29.435 C 107.500 29.276,107.570 29.190,107.655 29.243 C 107.740 29.296,107.865 29.251,107.931 29.144 C 108.004 29.026,107.979 28.993,107.870 29.060 C 107.760 29.128,107.667 28.991,107.633 28.711 C 107.582 28.291,107.565 28.307,107.444 28.892 M79.944 29.194 C 79.794 29.578,79.698 29.920,79.731 29.953 C 79.764 29.987,79.917 29.701,80.069 29.319 C 80.222 28.938,80.318 28.596,80.283 28.561 C 80.248 28.525,80.095 28.811,79.944 29.194 M133.097 28.774 C 132.938 29.188,133.113 29.244,133.326 28.848 C 133.428 28.656,133.442 28.500,133.357 28.500 C 133.272 28.500,133.155 28.623,133.097 28.774 M229.708 29.542 C 229.529 30.031,229.534 30.052,229.755 29.760 C 229.967 29.480,230.092 29.000,229.953 29.000 C 229.927 29.000,229.817 29.244,229.708 29.542 M67.428 30.368 C 67.091 30.853,66.988 31.054,67.199 30.814 C 67.949 29.962,68.190 29.634,68.116 29.560 C 68.075 29.519,67.765 29.883,67.428 30.368 M85.583 30.167 C 85.521 30.364,85.507 30.563,85.553 30.608 C 85.599 30.654,85.687 30.530,85.750 30.333 C 85.813 30.136,85.826 29.937,85.780 29.892 C 85.735 29.846,85.646 29.970,85.583 30.167 M218.853 30.195 C 218.842 30.348,218.790 30.610,218.737 30.778 C 218.647 31.067,218.651 31.068,218.832 30.786 C 218.937 30.623,218.989 30.361,218.947 30.203 C 218.879 29.945,218.870 29.944,218.853 30.195 M107.133 30.445 C 107.063 30.712,107.147 30.847,107.475 30.996 C 107.889 31.185,107.897 31.180,107.644 30.889 C 107.497 30.721,107.343 30.473,107.301 30.338 C 107.247 30.162,107.199 30.193,107.133 30.445 M74.795 30.826 C 74.680 31.236,74.749 31.474,74.930 31.292 C 74.983 31.239,75.001 31.020,74.968 30.806 L 74.910 30.417 74.795 30.826 M211.000 30.795 C 211.000 30.865,210.662 31.308,210.250 31.780 C 209.838 32.251,209.500 32.687,209.500 32.749 C 209.500 32.810,209.874 32.423,210.332 31.888 C 211.098 30.994,211.299 30.667,211.083 30.667 C 211.037 30.667,211.000 30.724,211.000 30.795 M199.000 31.500 C 198.884 31.781,198.827 32.050,198.875 32.097 C 198.923 32.145,199.045 31.943,199.148 31.648 C 199.391 30.953,199.275 30.837,199.000 31.500 M114.301 31.417 C 114.397 31.600,114.594 31.900,114.738 32.083 L 115.001 32.417 114.884 32.083 C 114.819 31.900,114.623 31.600,114.446 31.417 L 114.126 31.083 114.301 31.417 M138.276 31.458 C 138.233 31.527,141.529 31.583,145.599 31.583 C 149.670 31.583,153.000 31.527,153.000 31.458 C 153.000 31.390,149.704 31.333,145.677 31.333 C 141.649 31.333,138.318 31.390,138.276 31.458 M79.158 31.940 C 79.066 32.182,79.029 32.417,79.075 32.464 C 79.150 32.539,79.232 32.363,79.427 31.708 C 79.546 31.312,79.324 31.502,79.158 31.940 M252.005 32.140 C 252.218 32.519,252.422 32.800,252.459 32.764 C 252.555 32.667,252.035 31.708,251.810 31.569 C 251.704 31.503,251.792 31.760,252.005 32.140 M204.500 32.500 C 204.388 32.968,204.329 33.384,204.369 33.425 C 204.410 33.465,204.532 33.113,204.641 32.641 C 204.750 32.169,204.809 31.753,204.772 31.716 C 204.735 31.679,204.612 32.032,204.500 32.500 M68.373 33.294 C 68.114 33.792,68.089 33.962,68.253 34.116 C 68.416 34.268,68.496 34.132,68.623 33.488 C 68.818 32.502,68.796 32.484,68.373 33.294 M42.546 33.042 C 42.247 33.428,42.146 33.667,42.282 33.665 C 42.356 33.665,42.503 33.477,42.609 33.249 C 42.820 32.794,42.797 32.718,42.546 33.042 M212.290 33.311 C 212.067 33.689,212.058 33.778,212.246 33.778 C 212.373 33.778,212.524 33.594,212.580 33.369 C 212.726 32.790,212.611 32.767,212.290 33.311 M222.949 33.066 C 222.881 33.239,222.865 33.420,222.913 33.468 C 223.065 33.620,223.199 33.371,223.135 33.055 C 223.076 32.765,223.068 32.765,222.949 33.066 M190.276 33.395 C 190.207 33.658,190.190 33.912,190.238 33.960 C 190.372 34.094,190.536 33.558,190.465 33.218 C 190.418 32.996,190.368 33.042,190.276 33.395 M54.512 33.625 C 54.522 34.031,54.540 34.045,54.667 33.750 C 54.862 33.295,54.862 33.167,54.667 33.167 C 54.575 33.167,54.505 33.373,54.512 33.625 M184.333 33.694 C 184.333 34.301,184.406 34.279,184.563 33.625 C 184.628 33.353,184.604 33.167,184.503 33.167 C 184.410 33.167,184.333 33.404,184.333 33.694 M115.668 33.792 C 115.668 33.860,115.818 34.142,116.000 34.417 C 116.392 35.009,116.439 34.855,116.079 34.158 C 115.833 33.683,115.665 33.533,115.668 33.792 M207.559 34.653 C 207.271 34.916,206.897 35.208,206.727 35.303 C 206.558 35.397,206.465 35.521,206.521 35.576 C 206.577 35.632,206.988 35.341,207.436 34.929 C 207.884 34.517,208.213 34.179,208.167 34.178 C 208.121 34.177,207.848 34.391,207.559 34.653 M41.845 34.792 C 41.855 35.198,41.873 35.212,42.000 34.917 C 42.196 34.461,42.196 34.333,42.000 34.333 C 41.908 34.333,41.839 34.540,41.845 34.792 M222.836 34.597 C 222.837 34.773,222.915 35.029,223.008 35.167 C 223.131 35.349,223.147 35.282,223.065 34.917 C 222.928 34.304,222.832 34.171,222.836 34.597 M68.126 34.917 C 68.082 35.146,68.111 35.333,68.190 35.333 C 68.269 35.333,68.333 35.146,68.333 34.917 C 68.333 34.688,68.305 34.500,68.269 34.500 C 68.234 34.500,68.170 34.688,68.126 34.917 M190.039 35.167 C 190.039 35.487,190.073 35.619,190.115 35.458 C 190.157 35.298,190.157 35.035,190.115 34.875 C 190.073 34.715,190.039 34.846,190.039 35.167 M211.056 35.292 C 210.898 35.544,210.691 35.862,210.593 36.000 C 210.448 36.206,210.460 36.216,210.667 36.054 C 210.943 35.838,211.571 34.833,211.430 34.833 C 211.381 34.833,211.213 35.040,211.056 35.292 M239.447 35.230 C 239.385 35.394,239.338 35.652,239.344 35.805 C 239.351 35.989,239.409 35.947,239.515 35.681 C 239.604 35.460,239.650 35.201,239.619 35.106 C 239.587 35.011,239.510 35.067,239.447 35.230 M95.459 35.583 C 95.415 35.813,95.444 36.000,95.523 36.000 C 95.602 36.000,95.667 35.813,95.667 35.583 C 95.667 35.354,95.638 35.167,95.603 35.167 C 95.568 35.167,95.503 35.354,95.459 35.583 M161.647 35.703 C 161.724 36.166,161.747 36.189,161.800 35.856 C 161.834 35.639,161.793 35.393,161.709 35.309 C 161.616 35.216,161.592 35.372,161.647 35.703 M117.000 36.167 C 117.424 36.998,117.591 37.040,117.252 36.230 C 117.114 35.898,117.000 35.598,117.000 35.563 C 117.000 35.528,116.923 35.500,116.830 35.500 C 116.736 35.500,116.813 35.800,117.000 36.167 M229.991 36.043 C 230.307 36.386,230.631 36.667,230.711 36.667 C 230.864 36.667,230.725 36.522,229.909 35.835 C 229.484 35.477,229.495 35.505,229.991 36.043 M100.111 36.444 C 100.050 36.506,100.005 36.712,100.011 36.903 C 100.020 37.222,100.034 37.218,100.181 36.851 C 100.344 36.443,100.310 36.245,100.111 36.444 M153.833 36.712 C 153.833 36.951,153.911 37.195,154.007 37.254 C 154.120 37.324,154.141 37.199,154.067 36.889 C 153.913 36.250,153.833 36.190,153.833 36.712 M234.333 36.667 C 234.131 36.797,234.155 36.829,234.458 36.831 C 234.665 36.832,234.833 36.758,234.833 36.667 C 234.833 36.458,234.656 36.458,234.333 36.667 M261.385 37.083 C 261.526 37.358,261.766 37.733,261.918 37.917 C 262.071 38.100,262.027 37.950,261.821 37.583 C 261.367 36.774,261.027 36.384,261.385 37.083 M88.375 36.948 C 88.535 36.990,88.798 36.990,88.958 36.948 C 89.119 36.906,88.987 36.872,88.667 36.872 C 88.346 36.872,88.215 36.906,88.375 36.948 M95.186 36.945 C 95.175 37.052,95.118 37.277,95.059 37.445 C 94.975 37.682,94.997 37.707,95.158 37.559 C 95.272 37.455,95.329 37.230,95.285 37.059 C 95.241 36.889,95.197 36.838,95.186 36.945 M232.109 37.042 C 232.152 37.110,232.365 37.167,232.583 37.167 C 232.802 37.167,233.015 37.110,233.058 37.042 C 233.100 36.973,232.887 36.917,232.583 36.917 C 232.280 36.917,232.067 36.973,232.109 37.042 M134.862 37.464 C 134.471 38.264,134.455 38.432,134.824 37.858 C 135.021 37.550,135.160 37.234,135.133 37.155 C 135.106 37.076,134.984 37.215,134.862 37.464 M255.284 37.871 C 255.540 38.395,255.808 38.826,255.878 38.829 C 256.030 38.834,255.477 37.729,255.089 37.250 C 254.940 37.067,255.028 37.346,255.284 37.871 M243.771 37.688 C 243.632 38.382,243.767 38.517,243.917 37.833 C 243.980 37.545,243.997 37.275,243.955 37.232 C 243.912 37.190,243.829 37.395,243.771 37.688 M20.872 37.833 C 20.872 38.154,20.906 38.285,20.948 38.125 C 20.990 37.965,20.990 37.702,20.948 37.542 C 20.906 37.381,20.872 37.512,20.872 37.833 M99.741 38.074 C 99.678 38.409,99.668 38.724,99.719 38.775 C 99.770 38.826,99.863 38.594,99.926 38.259 C 99.989 37.925,99.998 37.609,99.947 37.559 C 99.896 37.508,99.803 37.740,99.741 38.074 M118.000 37.864 C 118.000 38.008,118.112 38.219,118.250 38.333 C 118.568 38.597,118.565 38.350,118.245 37.926 C 118.049 37.667,118.000 37.655,118.000 37.864 M211.437 37.923 C 211.380 38.072,211.340 38.357,211.348 38.555 C 211.359 38.811,211.410 38.753,211.525 38.357 C 211.691 37.780,211.622 37.441,211.437 37.923 M67.453 38.222 C 67.268 38.694,67.298 38.935,67.516 38.718 C 67.616 38.617,67.670 38.396,67.636 38.226 C 67.576 37.928,67.569 37.928,67.453 38.222 M198.673 38.333 C 198.675 38.471,198.787 38.729,198.922 38.907 C 199.237 39.323,199.235 39.169,198.918 38.561 C 198.781 38.298,198.671 38.196,198.673 38.333 M127.187 39.438 C 126.910 40.047,127.031 40.081,127.370 39.489 C 127.525 39.220,127.592 39.000,127.519 39.000 C 127.446 39.000,127.297 39.197,127.187 39.438 M162.333 39.417 C 162.333 39.646,162.398 39.833,162.477 39.833 C 162.556 39.833,162.585 39.646,162.541 39.417 C 162.497 39.188,162.432 39.000,162.397 39.000 C 162.362 39.000,162.333 39.188,162.333 39.417 M211.132 39.491 C 211.093 39.761,211.113 39.950,211.177 39.910 C 211.344 39.807,211.479 39.000,211.329 39.000 C 211.261 39.000,211.172 39.221,211.132 39.491 M55.758 39.878 C 55.837 40.084,56.833 40.931,56.833 40.792 C 56.833 40.763,56.571 40.492,56.250 40.190 C 55.929 39.887,55.708 39.747,55.758 39.878 M154.512 40.198 C 154.505 40.445,154.575 40.693,154.667 40.750 C 154.866 40.873,154.866 40.546,154.667 40.083 C 154.539 39.786,154.522 39.798,154.512 40.198 M133.224 40.434 C 133.160 40.608,133.027 40.805,132.929 40.872 C 132.807 40.956,132.815 40.996,132.952 40.997 C 133.181 41.000,133.577 40.355,133.434 40.212 C 133.383 40.161,133.289 40.261,133.224 40.434 M90.750 40.667 L 90.250 40.794 90.698 40.814 C 90.945 40.824,91.193 40.758,91.250 40.667 C 91.307 40.575,91.330 40.509,91.302 40.520 C 91.273 40.531,91.025 40.597,90.750 40.667 M227.413 40.993 C 227.471 41.089,227.715 41.167,227.954 41.167 C 228.477 41.167,228.416 41.087,227.778 40.933 C 227.468 40.859,227.342 40.880,227.413 40.993 " stroke="none" fill="#c3c3c3" fill-rule="evenodd"></path><path id="path2" d="" stroke="none" fill="#848484" fill-rule="evenodd"></path><path id="path3" d="M115.413 21.542 L 114.083 22.917 115.458 21.587 C 116.735 20.353,116.909 20.167,116.788 20.167 C 116.763 20.167,116.144 20.785,115.413 21.542 M259.910 21.042 L 259.083 21.917 259.958 21.090 C 260.440 20.635,260.833 20.241,260.833 20.215 C 260.833 20.090,260.679 20.229,259.910 21.042 M258.324 22.625 L 257.750 23.250 258.375 22.676 C 258.957 22.141,259.077 22.000,258.949 22.000 C 258.922 22.000,258.640 22.281,258.324 22.625 M60.240 23.375 L 59.750 23.917 60.292 23.427 C 60.797 22.971,60.910 22.833,60.781 22.833 C 60.752 22.833,60.509 23.077,60.240 23.375 M227.487 23.792 L 227.083 24.250 227.583 23.833 C 227.858 23.604,228.115 23.398,228.153 23.375 C 228.191 23.352,228.148 23.333,228.057 23.333 C 227.966 23.333,227.710 23.540,227.487 23.792 M116.409 25.542 L 115.750 26.250 116.458 25.591 C 117.117 24.978,117.243 24.833,117.117 24.833 C 117.090 24.833,116.771 25.152,116.409 25.542 M259.910 26.009 C 259.456 26.473,259.196 26.802,259.333 26.741 C 259.575 26.634,260.948 25.167,260.807 25.167 C 260.769 25.167,260.365 25.546,259.910 26.009 M109.246 27.875 L 107.917 29.250 109.292 27.921 C 110.048 27.189,110.667 26.571,110.667 26.546 C 110.667 26.424,110.481 26.598,109.246 27.875 M253.991 27.125 L 253.417 27.750 254.042 27.176 C 254.623 26.641,254.743 26.500,254.616 26.500 C 254.588 26.500,254.307 26.781,253.991 27.125 M252.762 28.318 L 252.274 28.917 252.837 28.380 C 253.146 28.085,253.366 27.816,253.325 27.781 C 253.284 27.747,253.030 27.988,252.762 28.318 M85.045 33.167 C 85.045 33.579,85.078 33.748,85.118 33.542 C 85.157 33.335,85.157 32.998,85.118 32.792 C 85.078 32.585,85.045 32.754,85.045 33.167 M64.906 33.542 L 64.417 34.083 64.958 33.594 C 65.256 33.325,65.500 33.081,65.500 33.052 C 65.500 32.923,65.362 33.037,64.906 33.542 M79.070 33.595 C 79.009 33.922,79.024 34.419,79.104 34.698 C 79.224 35.116,79.250 35.009,79.250 34.103 C 79.250 32.839,79.225 32.769,79.070 33.595 M207.573 34.875 L 207.083 35.417 207.625 34.927 C 208.130 34.471,208.243 34.333,208.115 34.333 C 208.086 34.333,207.842 34.577,207.573 34.875 M193.767 37.294 C 193.868 37.362,193.993 37.529,194.045 37.667 C 194.109 37.834,194.145 37.792,194.154 37.542 C 194.162 37.290,194.071 37.168,193.875 37.169 C 193.695 37.171,193.654 37.219,193.767 37.294 M64.573 38.208 L 64.083 38.750 64.625 38.260 C 65.130 37.804,65.243 37.667,65.115 37.667 C 65.086 37.667,64.842 37.910,64.573 38.208 " stroke="none" fill="#555555" fill-rule="evenodd"></path><path id="path4" d="M92.294 23.285 C 92.501 23.324,92.801 23.323,92.960 23.281 C 93.120 23.239,92.950 23.207,92.583 23.209 C 92.217 23.211,92.086 23.245,92.294 23.285 M223.045 34.333 C 223.045 34.746,223.078 34.915,223.118 34.708 C 223.157 34.502,223.157 34.165,223.118 33.958 C 223.078 33.752,223.045 33.921,223.045 34.333 " stroke="none" fill="#7c7c7c" fill-rule="evenodd"></path></g></svg>